<svg xmlns="http://www.w3.org/2000/svg" version="1.1" xmlns:xlink="http://www.w3.org/1999/xlink" xmlns:svgjs="http://svgjs.com/svgjs" width="1440" height="460" preserveAspectRatio="none" viewBox="0 0 1440 460"><g mask="url(&quot;#SvgjsMask2245&quot;)" fill="none"><path d="M1325.94 354.33000000000004 L1378.04 375.3L1385.4988264744848 331.30617352551536z" stroke="rgba(211, 99, 255, 1)" stroke-width="1" stroke-dasharray="3, 3"></path><circle r="38.333333333333336" cx="1304.15" cy="92.98" fill="rgba(191, 83, 234, 1)"></circle><rect width="202.8" height="202.8" clip-path="url(&quot;#SvgjsClipPath2246&quot;)" x="955.4" y="65.97" fill="url(#SvgjsPattern2247)" transform="rotate(187.75, 1056.8, 167.37)"></rect><rect width="204" height="204" clip-path="url(&quot;#SvgjsClipPath2248&quot;)" x="979.65" y="87.67" fill="url(#SvgjsPattern2249)" transform="rotate(335.09, 1081.65, 189.67)"></rect><path d="M815.24 23.19a5.6 5.6 0 1 0-11.08 1.59 5.6 5.6 0 1 0 11.08-1.59zM799.41 25.46a5.6 5.6 0 1 0-11.09 1.58 5.6 5.6 0 1 0 11.09-1.58zM783.57 27.72a5.6 5.6 0 1 0-11.09 1.59 5.6 5.6 0 1 0 11.09-1.59zM767.73 29.99a5.6 5.6 0 1 0-11.09 1.59 5.6 5.6 0 1 0 11.09-1.59z" fill="rgba(148, 81, 174, 1)"></path><rect width="264" height="264" clip-path="url(&quot;#SvgjsClipPath2250&quot;)" x="710.13" y="-87.17" fill="url(#SvgjsPattern2251)" transform="rotate(108.63, 842.13, 44.83)"></rect><circle r="40.11125058393867" cx="84.6" cy="375.09" fill="rgba(148, 81, 174, 1)"></circle><path d="M1258.39 211.47L1271.02 213.58 1271.74 226.37 1284.37 228.47 1285.08 241.26 1297.72 243.37 1298.43 256.15" stroke="rgba(211, 99, 255, 1)" stroke-width="2.65" stroke-dasharray="3, 2"></path><rect width="222.6" height="222.6" clip-path="url(&quot;#SvgjsClipPath2252&quot;)" x="859.23" y="159.75" fill="url(#SvgjsPattern2253)" transform="rotate(245.3, 970.53, 271.05)"></rect><circle r="38.333333333333336" cx="696.01" cy="121.78" stroke="rgba(191, 83, 234, 1)" stroke-width="1.41" stroke-dasharray="4, 4"></circle><path d="M681.36 407.41999999999996 L634.66 349.96L703.6085291693433 333.09147083065653z" fill="rgba(211, 99, 255, 1)"></path><rect width="84" height="84" clip-path="url(&quot;#SvgjsClipPath2254&quot;)" x="389.87" y="118.39" fill="url(#SvgjsPattern2255)" transform="rotate(271.53, 431.87, 160.39)"></rect><rect width="109.2" height="109.2" clip-path="url(&quot;#SvgjsClipPath2256&quot;)" x="277.01" y="-15.02" fill="url(#SvgjsPattern2257)" transform="rotate(163.08, 331.61, 39.58)"></rect><rect width="204" height="204" clip-path="url(&quot;#SvgjsClipPath2258&quot;)" x="686.38" y="67.29" fill="url(#SvgjsPattern2259)" transform="rotate(252.56, 788.38, 169.29)"></rect><rect width="180" height="180" clip-path="url(&quot;#SvgjsClipPath2260&quot;)" x="415.1" y="-41.1" fill="url(#SvgjsPattern2261)" transform="rotate(184.08, 505.1, 48.9)"></rect></g><defs><mask id="SvgjsMask2245"><rect width="1440" height="460" fill="#ffffff"></rect></mask><pattern x="0" y="0" width="6.76" height="6.76" patternUnits="userSpaceOnUse" id="SvgjsPattern2247"><path d="M3.38 1L3.38 5.76M1 3.38L5.76 3.38" stroke="rgba(131, 48, 164, 1)" fill="none" stroke-width="1"></path></pattern><clipPath id="SvgjsClipPath2246"><circle r="50.7" cx="1056.8" cy="167.37"></circle></clipPath><pattern x="0" y="0" width="6" height="6" patternUnits="userSpaceOnUse" id="SvgjsPattern2249"><path d="M3 1L3 5M1 3L5 3" stroke="rgba(191, 83, 234, 1)" fill="none" stroke-width="1.33"></path></pattern><clipPath id="SvgjsClipPath2248"><circle r="51" cx="1081.65" cy="189.67"></circle></clipPath><pattern x="0" y="0" width="6" height="6" patternUnits="userSpaceOnUse" id="SvgjsPattern2251"><path d="M3 1L3 5M1 3L5 3" stroke="rgba(194, 40, 255, 1)" fill="none" stroke-width="1.96"></path></pattern><clipPath id="SvgjsClipPath2250"><circle r="66" cx="842.13" cy="44.83"></circle></clipPath><pattern x="0" y="0" width="222.6" height="7.42" patternUnits="userSpaceOnUse" id="SvgjsPattern2253"><rect width="222.6" height="3.71" x="0" y="0" fill="rgba(131, 48, 164, 1)"></rect><rect width="222.6" height="3.71" x="0" y="3.71" fill="rgba(0, 0, 0, 0)"></rect></pattern><clipPath id="SvgjsClipPath2252"><circle r="55.65" cx="970.53" cy="271.05"></circle></clipPath><pattern x="0" y="0" width="6" height="6" patternUnits="userSpaceOnUse" id="SvgjsPattern2255"><path d="M0 6L3 0L6 6" stroke="rgba(211, 99, 255, 1)" fill="none"></path></pattern><clipPath id="SvgjsClipPath2254"><circle r="21" cx="431.87" cy="160.39"></circle></clipPath><pattern x="0" y="0" width="10.92" height="10.92" patternUnits="userSpaceOnUse" id="SvgjsPattern2257"><path d="M0 10.92L5.46 0L10.92 10.92" stroke="rgba(234, 182, 255, 1)" fill="none"></path></pattern><clipPath id="SvgjsClipPath2256"><circle r="27.3" cx="331.61" cy="39.58"></circle></clipPath><pattern x="0" y="0" width="6" height="6" patternUnits="userSpaceOnUse" id="SvgjsPattern2259"><path d="M3 1L3 5M1 3L5 3" stroke="rgba(148, 81, 174, 1)" fill="none" stroke-width="1.69"></path></pattern><clipPath id="SvgjsClipPath2258"><circle r="51" cx="788.38" cy="169.29"></circle></clipPath><pattern x="0" y="0" width="6" height="6" patternUnits="userSpaceOnUse" id="SvgjsPattern2261"><path d="M0 6L3 0L6 6" stroke="rgba(191, 83, 234, 1)" fill="none"></path></pattern><clipPath id="SvgjsClipPath2260"><circle r="45" cx="505.1" cy="48.9"></circle></clipPath></defs></svg>