<svg xmlns="http://www.w3.org/2000/svg" version="1.1" xmlns:xlink="http://www.w3.org/1999/xlink" xmlns:svgjs="http://svgjs.com/svgjs" width="1440" height="560" preserveAspectRatio="none" viewBox="0 0 1440 560"><g mask="url(&quot;#SvgjsMask1103&quot;)" fill="none"><path d="M-70.82 392.44L-70.82 392.44" stroke="rgba(89, 19, 101, 1)" stroke-width="1.5"></path><path d="M-70.82 392.44L-108.99 512.17" stroke="rgba(89, 19, 101, 1)" stroke-width="1.5"></path><path d="M-70.82 392.44L80.92 409.62" stroke="rgba(89, 19, 101, 1)" stroke-width="1.5"></path><path d="M-70.82 392.44L43.46 547.6" stroke="rgba(89, 19, 101, 1)" stroke-width="1.5"></path><path d="M-70.82 392.44L70.25 641.64" stroke="rgba(89, 19, 101, 1)" stroke-width="1.5"></path><path d="M-70.82 392.44L-103.92 689.16" stroke="rgba(89, 19, 101, 1)" stroke-width="1.5"></path><path d="M-108.99 512.17L-108.99 512.17" stroke="rgba(89, 19, 101, 1)" stroke-width="1.5"></path><path d="M-108.99 512.17L43.46 547.6" stroke="rgba(89, 19, 101, 1)" stroke-width="1.5"></path><path d="M-108.99 512.17L-103.92 689.16" stroke="rgba(89, 19, 101, 1)" stroke-width="1.5"></path><path d="M-108.99 512.17L80.92 409.62" stroke="rgba(89, 19, 101, 1)" stroke-width="1.5"></path><path d="M-108.99 512.17L70.25 641.64" stroke="rgba(89, 19, 101, 1)" stroke-width="1.5"></path><path d="M-108.99 512.17L234.29 488.58" stroke="rgba(89, 19, 101, 1)" stroke-width="1.5"></path><path d="M-103.92 689.16L-103.92 689.16" stroke="rgba(89, 19, 101, 1)" stroke-width="1.5"></path><path d="M-103.92 689.16L70.25 641.64" stroke="rgba(89, 19, 101, 1)" stroke-width="1.5"></path><path d="M-103.92 689.16L43.46 547.6" stroke="rgba(89, 19, 101, 1)" stroke-width="1.5"></path><path d="M80.92 409.62L80.92 409.62" stroke="rgba(89, 19, 101, 1)" stroke-width="1.5"></path><path d="M80.92 409.62L43.46 547.6" stroke="rgba(89, 19, 101, 1)" stroke-width="1.5"></path><path d="M80.92 409.62L233.02 380.04" stroke="rgba(89, 19, 101, 1)" stroke-width="1.5"></path><path d="M80.92 409.62L234.29 488.58" stroke="rgba(89, 19, 101, 1)" stroke-width="1.5"></path><path d="M80.92 409.62L70.25 641.64" stroke="rgba(89, 19, 101, 1)" stroke-width="1.5"></path><path d="M43.46 547.6L43.46 547.6" stroke="rgba(89, 19, 101, 1)" stroke-width="1.5"></path><path d="M43.46 547.6L70.25 641.64" stroke="rgba(89, 19, 101, 1)" stroke-width="1.5"></path><path d="M70.25 641.64L70.25 641.64" stroke="rgba(89, 19, 101, 1)" stroke-width="1.5"></path><path d="M70.25 641.64L192.61 708.78" stroke="rgba(89, 19, 101, 1)" stroke-width="1.5"></path><path d="M70.25 641.64L234.29 488.58" stroke="rgba(89, 19, 101, 1)" stroke-width="1.5"></path><path d="M233.02 380.04L233.02 380.04" stroke="rgba(89, 19, 101, 1)" stroke-width="1.5"></path><path d="M233.02 380.04L234.29 488.58" stroke="rgba(89, 19, 101, 1)" stroke-width="1.5"></path><path d="M233.02 380.04L400.19 410.57" stroke="rgba(89, 19, 101, 1)" stroke-width="1.5"></path><path d="M233.02 380.04L412.13 494.85" stroke="rgba(89, 19, 101, 1)" stroke-width="1.5"></path><path d="M234.29 488.58L234.29 488.58" stroke="rgba(89, 19, 101, 1)" stroke-width="1.5"></path><path d="M192.61 708.78L192.61 708.78" stroke="rgba(89, 19, 101, 1)" stroke-width="1.5"></path><path d="M192.61 708.78L342.46 672.03" stroke="rgba(89, 19, 101, 1)" stroke-width="1.5"></path><path d="M400.19 410.57L400.19 410.57" stroke="rgba(89, 19, 101, 1)" stroke-width="1.5"></path><path d="M400.19 410.57L412.13 494.85" stroke="rgba(89, 19, 101, 1)" stroke-width="1.5"></path><path d="M400.19 410.57L511.45 366.23" stroke="rgba(89, 19, 101, 1)" stroke-width="1.5"></path><path d="M412.13 494.85L412.13 494.85" stroke="rgba(89, 19, 101, 1)" stroke-width="1.5"></path><path d="M412.13 494.85L530.7 526.31" stroke="rgba(89, 19, 101, 1)" stroke-width="1.5"></path><path d="M342.46 672.03L342.46 672.03" stroke="rgba(89, 19, 101, 1)" stroke-width="1.5"></path><path d="M342.46 672.03L412.13 494.85" stroke="rgba(89, 19, 101, 1)" stroke-width="1.5"></path><path d="M342.46 672.03L234.29 488.58" stroke="rgba(89, 19, 101, 1)" stroke-width="1.5"></path><path d="M342.46 672.03L530.7 526.31" stroke="rgba(89, 19, 101, 1)" stroke-width="1.5"></path><path d="M342.46 672.03L400.19 410.57" stroke="rgba(89, 19, 101, 1)" stroke-width="1.5"></path><path d="M511.45 366.23L511.45 366.23" stroke="rgba(89, 19, 101, 1)" stroke-width="1.5"></path><path d="M511.45 366.23L664.36 349.63" stroke="rgba(89, 19, 101, 1)" stroke-width="1.5"></path><path d="M511.45 366.23L530.7 526.31" stroke="rgba(89, 19, 101, 1)" stroke-width="1.5"></path><path d="M511.45 366.23L412.13 494.85" stroke="rgba(89, 19, 101, 1)" stroke-width="1.5"></path><path d="M511.45 366.23L703.68 531.51" stroke="rgba(89, 19, 101, 1)" stroke-width="1.5"></path><path d="M511.45 366.23L233.02 380.04" stroke="rgba(89, 19, 101, 1)" stroke-width="1.5"></path><path d="M530.7 526.31L530.7 526.31" stroke="rgba(89, 19, 101, 1)" stroke-width="1.5"></path><path d="M530.7 526.31L640 638.18" stroke="rgba(89, 19, 101, 1)" stroke-width="1.5"></path><path d="M530.7 526.31L703.68 531.51" stroke="rgba(89, 19, 101, 1)" stroke-width="1.5"></path><path d="M530.7 526.31L400.19 410.57" stroke="rgba(89, 19, 101, 1)" stroke-width="1.5"></path><path d="M530.7 526.31L664.36 349.63" stroke="rgba(89, 19, 101, 1)" stroke-width="1.5"></path><path d="M664.36 349.63L664.36 349.63" stroke="rgba(89, 19, 101, 1)" stroke-width="1.5"></path><path d="M664.36 349.63L703.68 531.51" stroke="rgba(89, 19, 101, 1)" stroke-width="1.5"></path><path d="M664.36 349.63L851.07 349.98" stroke="rgba(89, 19, 101, 1)" stroke-width="1.5"></path><path d="M703.68 531.51L703.68 531.51" stroke="rgba(89, 19, 101, 1)" stroke-width="1.5"></path><path d="M703.68 531.51L814.05 543.96" stroke="rgba(89, 19, 101, 1)" stroke-width="1.5"></path><path d="M703.68 531.51L640 638.18" stroke="rgba(89, 19, 101, 1)" stroke-width="1.5"></path><path d="M640 638.18L640 638.18" stroke="rgba(89, 19, 101, 1)" stroke-width="1.5"></path><path d="M640 638.18L814.05 543.96" stroke="rgba(89, 19, 101, 1)" stroke-width="1.5"></path><path d="M640 638.18L860.64 662.95" stroke="rgba(89, 19, 101, 1)" stroke-width="1.5"></path><path d="M829.01 225.43L829.01 225.43" stroke="rgba(89, 19, 101, 1)" stroke-width="1.5"></path><path d="M829.01 225.43L851.07 349.98" stroke="rgba(89, 19, 101, 1)" stroke-width="1.5"></path><path d="M851.07 349.98L851.07 349.98" stroke="rgba(89, 19, 101, 1)" stroke-width="1.5"></path><path d="M851.07 349.98L1007.56 354.6" stroke="rgba(89, 19, 101, 1)" stroke-width="1.5"></path><path d="M814.05 543.96L814.05 543.96" stroke="rgba(89, 19, 101, 1)" stroke-width="1.5"></path><path d="M814.05 543.96L860.64 662.95" stroke="rgba(89, 19, 101, 1)" stroke-width="1.5"></path><path d="M814.05 543.96L987.97 540.01" stroke="rgba(89, 19, 101, 1)" stroke-width="1.5"></path><path d="M860.64 662.95L860.64 662.95" stroke="rgba(89, 19, 101, 1)" stroke-width="1.5"></path><path d="M860.64 662.95L1012.14 662.48" stroke="rgba(89, 19, 101, 1)" stroke-width="1.5"></path><path d="M860.64 662.95L987.97 540.01" stroke="rgba(89, 19, 101, 1)" stroke-width="1.5"></path><path d="M860.64 662.95L703.68 531.51" stroke="rgba(89, 19, 101, 1)" stroke-width="1.5"></path><path d="M995.76 -65.77L995.76 -65.77" stroke="rgba(89, 19, 101, 1)" stroke-width="1.5"></path><path d="M995.76 -65.77L1095 -97.92" stroke="rgba(89, 19, 101, 1)" stroke-width="1.5"></path><path d="M995.76 -65.77L986.14 54.31" stroke="rgba(89, 19, 101, 1)" stroke-width="1.5"></path><path d="M986.14 54.31L986.14 54.31" stroke="rgba(89, 19, 101, 1)" stroke-width="1.5"></path><path d="M986.14 54.31L1091.99 84.49" stroke="rgba(89, 19, 101, 1)" stroke-width="1.5"></path><path d="M986.14 54.31L1095 -97.92" stroke="rgba(89, 19, 101, 1)" stroke-width="1.5"></path><path d="M986.14 54.31L1011.77 261.09" stroke="rgba(89, 19, 101, 1)" stroke-width="1.5"></path><path d="M986.14 54.31L829.01 225.43" stroke="rgba(89, 19, 101, 1)" stroke-width="1.5"></path><path d="M1011.77 261.09L1011.77 261.09" stroke="rgba(89, 19, 101, 1)" stroke-width="1.5"></path><path d="M1011.77 261.09L1007.56 354.6" stroke="rgba(89, 19, 101, 1)" stroke-width="1.5"></path><path d="M1011.77 261.09L1115.89 387" stroke="rgba(89, 19, 101, 1)" stroke-width="1.5"></path><path d="M1011.77 261.09L851.07 349.98" stroke="rgba(89, 19, 101, 1)" stroke-width="1.5"></path><path d="M1011.77 261.09L829.01 225.43" stroke="rgba(89, 19, 101, 1)" stroke-width="1.5"></path><path d="M1011.77 261.09L1091.99 84.49" stroke="rgba(89, 19, 101, 1)" stroke-width="1.5"></path><path d="M1007.56 354.6L1007.56 354.6" stroke="rgba(89, 19, 101, 1)" stroke-width="1.5"></path><path d="M1007.56 354.6L1115.89 387" stroke="rgba(89, 19, 101, 1)" stroke-width="1.5"></path><path d="M987.97 540.01L987.97 540.01" stroke="rgba(89, 19, 101, 1)" stroke-width="1.5"></path><path d="M987.97 540.01L1012.14 662.48" stroke="rgba(89, 19, 101, 1)" stroke-width="1.5"></path><path d="M987.97 540.01L1142.79 550.57" stroke="rgba(89, 19, 101, 1)" stroke-width="1.5"></path><path d="M1012.14 662.48L1012.14 662.48" stroke="rgba(89, 19, 101, 1)" stroke-width="1.5"></path><path d="M1012.14 662.48L1092.93 705.99" stroke="rgba(89, 19, 101, 1)" stroke-width="1.5"></path><path d="M1012.14 662.48L1142.79 550.57" stroke="rgba(89, 19, 101, 1)" stroke-width="1.5"></path><path d="M1012.14 662.48L814.05 543.96" stroke="rgba(89, 19, 101, 1)" stroke-width="1.5"></path><path d="M1095 -97.92L1095 -97.92" stroke="rgba(89, 19, 101, 1)" stroke-width="1.5"></path><path d="M1095 -97.92L1249.26 -97.08" stroke="rgba(89, 19, 101, 1)" stroke-width="1.5"></path><path d="M1095 -97.92L1091.99 84.49" stroke="rgba(89, 19, 101, 1)" stroke-width="1.5"></path><path d="M1095 -97.92L1245.9 65.58" stroke="rgba(89, 19, 101, 1)" stroke-width="1.5"></path><path d="M1091.99 84.49L1091.99 84.49" stroke="rgba(89, 19, 101, 1)" stroke-width="1.5"></path><path d="M1091.99 84.49L1245.9 65.58" stroke="rgba(89, 19, 101, 1)" stroke-width="1.5"></path><path d="M1091.99 84.49L995.76 -65.77" stroke="rgba(89, 19, 101, 1)" stroke-width="1.5"></path><path d="M1115.89 387L1115.89 387" stroke="rgba(89, 19, 101, 1)" stroke-width="1.5"></path><path d="M1115.89 387L1142.79 550.57" stroke="rgba(89, 19, 101, 1)" stroke-width="1.5"></path><path d="M1115.89 387L1309.38 382.24" stroke="rgba(89, 19, 101, 1)" stroke-width="1.5"></path><path d="M1115.89 387L987.97 540.01" stroke="rgba(89, 19, 101, 1)" stroke-width="1.5"></path><path d="M1142.79 550.57L1142.79 550.57" stroke="rgba(89, 19, 101, 1)" stroke-width="1.5"></path><path d="M1142.79 550.57L1282.95 551.39" stroke="rgba(89, 19, 101, 1)" stroke-width="1.5"></path><path d="M1092.93 705.99L1092.93 705.99" stroke="rgba(89, 19, 101, 1)" stroke-width="1.5"></path><path d="M1092.93 705.99L1142.79 550.57" stroke="rgba(89, 19, 101, 1)" stroke-width="1.5"></path><path d="M1092.93 705.99L987.97 540.01" stroke="rgba(89, 19, 101, 1)" stroke-width="1.5"></path><path d="M1092.93 705.99L1292.11 645.07" stroke="rgba(89, 19, 101, 1)" stroke-width="1.5"></path><path d="M1092.93 705.99L860.64 662.95" stroke="rgba(89, 19, 101, 1)" stroke-width="1.5"></path><path d="M1092.93 705.99L1282.95 551.39" stroke="rgba(89, 19, 101, 1)" stroke-width="1.5"></path><path d="M1249.26 -97.08L1249.26 -97.08" stroke="rgba(89, 19, 101, 1)" stroke-width="1.5"></path><path d="M1249.26 -97.08L1245.9 65.58" stroke="rgba(89, 19, 101, 1)" stroke-width="1.5"></path><path d="M1249.26 -97.08L1417.93 -69.17" stroke="rgba(89, 19, 101, 1)" stroke-width="1.5"></path><path d="M1249.26 -97.08L1441.32 42.38" stroke="rgba(89, 19, 101, 1)" stroke-width="1.5"></path><path d="M1245.9 65.58L1245.9 65.58" stroke="rgba(89, 19, 101, 1)" stroke-width="1.5"></path><path d="M1245.9 65.58L1281.6 208.07" stroke="rgba(89, 19, 101, 1)" stroke-width="1.5"></path><path d="M1245.9 65.58L1441.32 42.38" stroke="rgba(89, 19, 101, 1)" stroke-width="1.5"></path><path d="M1245.9 65.58L1417.93 -69.17" stroke="rgba(89, 19, 101, 1)" stroke-width="1.5"></path><path d="M1281.6 208.07L1281.6 208.07" stroke="rgba(89, 19, 101, 1)" stroke-width="1.5"></path><path d="M1309.38 382.24L1309.38 382.24" stroke="rgba(89, 19, 101, 1)" stroke-width="1.5"></path><path d="M1309.38 382.24L1409.88 358.63" stroke="rgba(89, 19, 101, 1)" stroke-width="1.5"></path><path d="M1309.38 382.24L1282.95 551.39" stroke="rgba(89, 19, 101, 1)" stroke-width="1.5"></path><path d="M1309.38 382.24L1281.6 208.07" stroke="rgba(89, 19, 101, 1)" stroke-width="1.5"></path><path d="M1282.95 551.39L1282.95 551.39" stroke="rgba(89, 19, 101, 1)" stroke-width="1.5"></path><path d="M1282.95 551.39L1292.11 645.07" stroke="rgba(89, 19, 101, 1)" stroke-width="1.5"></path><path d="M1282.95 551.39L1446.04 560.34" stroke="rgba(89, 19, 101, 1)" stroke-width="1.5"></path><path d="M1282.95 551.39L1446.16 663.67" stroke="rgba(89, 19, 101, 1)" stroke-width="1.5"></path><path d="M1292.11 645.07L1292.11 645.07" stroke="rgba(89, 19, 101, 1)" stroke-width="1.5"></path><path d="M1292.11 645.07L1446.16 663.67" stroke="rgba(89, 19, 101, 1)" stroke-width="1.5"></path><path d="M1417.93 -69.17L1417.93 -69.17" stroke="rgba(89, 19, 101, 1)" stroke-width="1.5"></path><path d="M1417.93 -69.17L1441.32 42.38" stroke="rgba(89, 19, 101, 1)" stroke-width="1.5"></path><path d="M1417.93 -69.17L1555.58 -105.82" stroke="rgba(89, 19, 101, 1)" stroke-width="1.5"></path><path d="M1441.32 42.38L1441.32 42.38" stroke="rgba(89, 19, 101, 1)" stroke-width="1.5"></path><path d="M1441.32 42.38L1602.46 49.97" stroke="rgba(89, 19, 101, 1)" stroke-width="1.5"></path><path d="M1433.1 210.49L1433.1 210.49" stroke="rgba(89, 19, 101, 1)" stroke-width="1.5"></path><path d="M1433.1 210.49L1409.88 358.63" stroke="rgba(89, 19, 101, 1)" stroke-width="1.5"></path><path d="M1433.1 210.49L1281.6 208.07" stroke="rgba(89, 19, 101, 1)" stroke-width="1.5"></path><path d="M1433.1 210.49L1585.15 191.1" stroke="rgba(89, 19, 101, 1)" stroke-width="1.5"></path><path d="M1409.88 358.63L1409.88 358.63" stroke="rgba(89, 19, 101, 1)" stroke-width="1.5"></path><path d="M1409.88 358.63L1594.63 348.29" stroke="rgba(89, 19, 101, 1)" stroke-width="1.5"></path><path d="M1409.88 358.63L1281.6 208.07" stroke="rgba(89, 19, 101, 1)" stroke-width="1.5"></path><path d="M1409.88 358.63L1446.04 560.34" stroke="rgba(89, 19, 101, 1)" stroke-width="1.5"></path><path d="M1446.04 560.34L1446.04 560.34" stroke="rgba(89, 19, 101, 1)" stroke-width="1.5"></path><path d="M1446.04 560.34L1446.16 663.67" stroke="rgba(89, 19, 101, 1)" stroke-width="1.5"></path><path d="M1446.04 560.34L1559.83 668.37" stroke="rgba(89, 19, 101, 1)" stroke-width="1.5"></path><path d="M1446.04 560.34L1599.56 524.32" stroke="rgba(89, 19, 101, 1)" stroke-width="1.5"></path><path d="M1446.16 663.67L1446.16 663.67" stroke="rgba(89, 19, 101, 1)" stroke-width="1.5"></path><path d="M1446.16 663.67L1559.83 668.37" stroke="rgba(89, 19, 101, 1)" stroke-width="1.5"></path><path d="M1555.58 -105.82L1555.58 -105.82" stroke="rgba(89, 19, 101, 1)" stroke-width="1.5"></path><path d="M1555.58 -105.82L1602.46 49.97" stroke="rgba(89, 19, 101, 1)" stroke-width="1.5"></path><path d="M1555.58 -105.82L1441.32 42.38" stroke="rgba(89, 19, 101, 1)" stroke-width="1.5"></path><path d="M1555.58 -105.82L1585.15 191.1" stroke="rgba(89, 19, 101, 1)" stroke-width="1.5"></path><path d="M1555.58 -105.82L1249.26 -97.08" stroke="rgba(89, 19, 101, 1)" stroke-width="1.5"></path><path d="M1555.58 -105.82L1433.1 210.49" stroke="rgba(89, 19, 101, 1)" stroke-width="1.5"></path><path d="M1602.46 49.97L1602.46 49.97" stroke="rgba(89, 19, 101, 1)" stroke-width="1.5"></path><path d="M1602.46 49.97L1585.15 191.1" stroke="rgba(89, 19, 101, 1)" stroke-width="1.5"></path><path d="M1602.46 49.97L1417.93 -69.17" stroke="rgba(89, 19, 101, 1)" stroke-width="1.5"></path><path d="M1585.15 191.1L1585.15 191.1" stroke="rgba(89, 19, 101, 1)" stroke-width="1.5"></path><path d="M1585.15 191.1L1594.63 348.29" stroke="rgba(89, 19, 101, 1)" stroke-width="1.5"></path><path d="M1585.15 191.1L1441.32 42.38" stroke="rgba(89, 19, 101, 1)" stroke-width="1.5"></path><path d="M1585.15 191.1L1409.88 358.63" stroke="rgba(89, 19, 101, 1)" stroke-width="1.5"></path><path d="M1594.63 348.29L1594.63 348.29" stroke="rgba(89, 19, 101, 1)" stroke-width="1.5"></path><path d="M1594.63 348.29L1599.56 524.32" stroke="rgba(89, 19, 101, 1)" stroke-width="1.5"></path><path d="M1594.63 348.29L1433.1 210.49" stroke="rgba(89, 19, 101, 1)" stroke-width="1.5"></path><path d="M1594.63 348.29L1446.04 560.34" stroke="rgba(89, 19, 101, 1)" stroke-width="1.5"></path><path d="M1594.63 348.29L1309.38 382.24" stroke="rgba(89, 19, 101, 1)" stroke-width="1.5"></path><path d="M1599.56 524.32L1599.56 524.32" stroke="rgba(89, 19, 101, 1)" stroke-width="1.5"></path><path d="M1599.56 524.32L1559.83 668.37" stroke="rgba(89, 19, 101, 1)" stroke-width="1.5"></path><path d="M1559.83 668.37L1559.83 668.37" stroke="rgba(89, 19, 101, 1)" stroke-width="1.5"></path><circle r="5" cx="-70.82" cy="392.44" fill="rgba(89, 19, 101, 1)"></circle><circle r="5" cx="-108.99" cy="512.17" fill="rgba(89, 19, 101, 1)"></circle><circle r="5" cx="-103.92" cy="689.16" fill="rgba(89, 19, 101, 1)"></circle><circle r="5" cx="80.92" cy="409.62" fill="rgba(89, 19, 101, 1)"></circle><circle r="5" cx="43.46" cy="547.6" fill="rgba(89, 19, 101, 1)"></circle><circle r="5" cx="70.25" cy="641.64" fill="rgba(89, 19, 101, 1)"></circle><circle r="5" cx="233.02" cy="380.04" fill="rgba(89, 19, 101, 1)"></circle><circle r="5" cx="234.29" cy="488.58" fill="rgba(89, 19, 101, 1)"></circle><circle r="5" cx="192.61" cy="708.78" fill="rgba(89, 19, 101, 1)"></circle><circle r="5" cx="400.19" cy="410.57" fill="rgba(89, 19, 101, 1)"></circle><circle r="5" cx="412.13" cy="494.85" fill="rgba(89, 19, 101, 1)"></circle><circle r="5" cx="342.46" cy="672.03" fill="rgba(89, 19, 101, 1)"></circle><circle r="5" cx="511.45" cy="366.23" fill="rgba(89, 19, 101, 1)"></circle><circle r="5" cx="530.7" cy="526.31" fill="rgba(89, 19, 101, 1)"></circle><circle r="5" cx="664.36" cy="349.63" fill="rgba(89, 19, 101, 1)"></circle><circle r="5" cx="703.68" cy="531.51" fill="rgba(89, 19, 101, 1)"></circle><circle r="5" cx="640" cy="638.18" fill="rgba(89, 19, 101, 1)"></circle><circle r="5" cx="829.01" cy="225.43" fill="rgba(89, 19, 101, 1)"></circle><circle r="5" cx="851.07" cy="349.98" fill="rgba(89, 19, 101, 1)"></circle><circle r="5" cx="814.05" cy="543.96" fill="rgba(89, 19, 101, 1)"></circle><circle r="5" cx="860.64" cy="662.95" fill="rgba(89, 19, 101, 1)"></circle><circle r="5" cx="995.76" cy="-65.77" fill="rgba(89, 19, 101, 1)"></circle><circle r="5" cx="986.14" cy="54.31" fill="rgba(89, 19, 101, 1)"></circle><circle r="5" cx="1011.77" cy="261.09" fill="rgba(89, 19, 101, 1)"></circle><circle r="5" cx="1007.56" cy="354.6" fill="rgba(89, 19, 101, 1)"></circle><circle r="5" cx="987.97" cy="540.01" fill="rgba(89, 19, 101, 1)"></circle><circle r="5" cx="1012.14" cy="662.48" fill="rgba(89, 19, 101, 1)"></circle><circle r="5" cx="1095" cy="-97.92" fill="rgba(89, 19, 101, 1)"></circle><circle r="5" cx="1091.99" cy="84.49" fill="rgba(89, 19, 101, 1)"></circle><circle r="5" cx="1115.89" cy="387" fill="rgba(89, 19, 101, 1)"></circle><circle r="5" cx="1142.79" cy="550.57" fill="rgba(89, 19, 101, 1)"></circle><circle r="5" cx="1092.93" cy="705.99" fill="rgba(89, 19, 101, 1)"></circle><circle r="5" cx="1249.26" cy="-97.08" fill="rgba(89, 19, 101, 1)"></circle><circle r="5" cx="1245.9" cy="65.58" fill="rgba(89, 19, 101, 1)"></circle><circle r="5" cx="1281.6" cy="208.07" fill="rgba(89, 19, 101, 1)"></circle><circle r="5" cx="1309.38" cy="382.24" fill="rgba(89, 19, 101, 1)"></circle><circle r="5" cx="1282.95" cy="551.39" fill="rgba(89, 19, 101, 1)"></circle><circle r="5" cx="1292.11" cy="645.07" fill="rgba(89, 19, 101, 1)"></circle><circle r="5" cx="1417.93" cy="-69.17" fill="rgba(89, 19, 101, 1)"></circle><circle r="5" cx="1441.32" cy="42.38" fill="rgba(89, 19, 101, 1)"></circle><circle r="5" cx="1433.1" cy="210.49" fill="rgba(89, 19, 101, 1)"></circle><circle r="5" cx="1409.88" cy="358.63" fill="rgba(89, 19, 101, 1)"></circle><circle r="5" cx="1446.04" cy="560.34" fill="rgba(89, 19, 101, 1)"></circle><circle r="5" cx="1446.16" cy="663.67" fill="rgba(89, 19, 101, 1)"></circle><circle r="5" cx="1555.58" cy="-105.82" fill="rgba(89, 19, 101, 1)"></circle><circle r="5" cx="1602.46" cy="49.97" fill="rgba(89, 19, 101, 1)"></circle><circle r="5" cx="1585.15" cy="191.1" fill="rgba(89, 19, 101, 1)"></circle><circle r="5" cx="1594.63" cy="348.29" fill="rgba(89, 19, 101, 1)"></circle><circle r="5" cx="1599.56" cy="524.32" fill="rgba(89, 19, 101, 1)"></circle><circle r="5" cx="1559.83" cy="668.37" fill="rgba(89, 19, 101, 1)"></circle><path d="M360.61 524.89L360.61 524.89" stroke="hsl(281.9, 77.2%, 51.5%)" stroke-width="1.5"></path><path d="M360.61 524.89L375.21 654.1" stroke="hsl(281.9, 77.2%, 51.5%)" stroke-width="1.5"></path><path d="M360.61 524.89L495.6 551.32" stroke="hsl(281.9, 77.2%, 51.5%)" stroke-width="1.5"></path><path d="M360.61 524.89L189.11 517.3" stroke="hsl(281.9, 77.2%, 51.5%)" stroke-width="1.5"></path><path d="M360.61 524.89L510.7 661.24" stroke="hsl(281.9, 77.2%, 51.5%)" stroke-width="1.5"></path><path d="M639.67 664.45L639.67 664.45" stroke="hsl(281.9, 77.2%, 51.5%)" stroke-width="1.5"></path><path d="M639.67 664.45L510.7 661.24" stroke="hsl(281.9, 77.2%, 51.5%)" stroke-width="1.5"></path><path d="M639.67 664.45L701.14 528.2" stroke="hsl(281.9, 77.2%, 51.5%)" stroke-width="1.5"></path><path d="M1005.32 235.19L1005.32 235.19" stroke="hsl(281.9, 77.2%, 51.5%)" stroke-width="1.5"></path><path d="M1005.32 235.19L969.78 350.25" stroke="hsl(281.9, 77.2%, 51.5%)" stroke-width="1.5"></path><path d="M1005.32 235.19L1130.39 219.46" stroke="hsl(281.9, 77.2%, 51.5%)" stroke-width="1.5"></path><path d="M1005.32 235.19L1135.14 367.36" stroke="hsl(281.9, 77.2%, 51.5%)" stroke-width="1.5"></path><path d="M1005.32 235.19L1147.66 105.79" stroke="hsl(281.9, 77.2%, 51.5%)" stroke-width="1.5"></path><path d="M1005.32 235.19L845.66 361.61" stroke="hsl(281.9, 77.2%, 51.5%)" stroke-width="1.5"></path><path d="M1005.32 235.19L1002.34 507.04" stroke="hsl(281.9, 77.2%, 51.5%)" stroke-width="1.5"></path><path d="M969.78 350.25L969.78 350.25" stroke="hsl(281.9, 77.2%, 51.5%)" stroke-width="1.5"></path><path d="M969.78 350.25L845.66 361.61" stroke="hsl(281.9, 77.2%, 51.5%)" stroke-width="1.5"></path><path d="M1124.22 553.46L1124.22 553.46" stroke="hsl(281.9, 77.2%, 51.5%)" stroke-width="1.5"></path><path d="M1124.22 553.46L1002.34 507.04" stroke="hsl(281.9, 77.2%, 51.5%)" stroke-width="1.5"></path><path d="M1124.22 553.46L1264.45 499.77" stroke="hsl(281.9, 77.2%, 51.5%)" stroke-width="1.5"></path><path d="M1124.22 553.46L1092.8 702.77" stroke="hsl(281.9, 77.2%, 51.5%)" stroke-width="1.5"></path><path d="M1124.22 553.46L1135.14 367.36" stroke="hsl(281.9, 77.2%, 51.5%)" stroke-width="1.5"></path><path d="M1457.21 193.45L1457.21 193.45" stroke="hsl(281.9, 77.2%, 51.5%)" stroke-width="1.5"></path><path d="M1457.21 193.45L1570.66 199.94" stroke="hsl(281.9, 77.2%, 51.5%)" stroke-width="1.5"></path><path d="M1457.21 193.45L1538.33 102.42" stroke="hsl(281.9, 77.2%, 51.5%)" stroke-width="1.5"></path><path d="M1457.21 193.45L1297.96 197.04" stroke="hsl(281.9, 77.2%, 51.5%)" stroke-width="1.5"></path><path d="M1408.52 370.28L1408.52 370.28" stroke="hsl(281.9, 77.2%, 51.5%)" stroke-width="1.5"></path><path d="M1408.52 370.28L1285.18 392.65" stroke="hsl(281.9, 77.2%, 51.5%)" stroke-width="1.5"></path><path d="M1408.52 370.28L1398.05 540.9" stroke="hsl(281.9, 77.2%, 51.5%)" stroke-width="1.5"></path><path d="M1408.52 370.28L1457.21 193.45" stroke="hsl(281.9, 77.2%, 51.5%)" stroke-width="1.5"></path><path d="M1408.52 370.28L1590.95 351.16" stroke="hsl(281.9, 77.2%, 51.5%)" stroke-width="1.5"></path><path d="M1408.52 370.28L1264.45 499.77" stroke="hsl(281.9, 77.2%, 51.5%)" stroke-width="1.5"></path><path d="M1398.05 540.9L1398.05 540.9" stroke="hsl(281.9, 77.2%, 51.5%)" stroke-width="1.5"></path><path d="M1398.05 540.9L1439.48 669.19" stroke="hsl(281.9, 77.2%, 51.5%)" stroke-width="1.5"></path><path d="M1570.66 199.94L1570.66 199.94" stroke="hsl(281.9, 77.2%, 51.5%)" stroke-width="1.5"></path><path d="M1570.66 199.94L1538.33 102.42" stroke="hsl(281.9, 77.2%, 51.5%)" stroke-width="1.5"></path><path d="M1570.66 199.94L1590.95 351.16" stroke="hsl(281.9, 77.2%, 51.5%)" stroke-width="1.5"></path><path d="M1570.66 199.94L1408.52 370.28" stroke="hsl(281.9, 77.2%, 51.5%)" stroke-width="1.5"></path><path d="M-55.58 534.06L-55.58 534.06" stroke="hsl(281.9, 77.2%, 51.5%)" stroke-width="1.5"></path><path d="M-55.58 534.06L75.95 502.12" stroke="hsl(281.9, 77.2%, 51.5%)" stroke-width="1.5"></path><path d="M-55.58 534.06L-52.13 704.63" stroke="hsl(281.9, 77.2%, 51.5%)" stroke-width="1.5"></path><path d="M-55.58 534.06L109.55 645.49" stroke="hsl(281.9, 77.2%, 51.5%)" stroke-width="1.5"></path><path d="M-55.58 534.06L189.11 517.3" stroke="hsl(281.9, 77.2%, 51.5%)" stroke-width="1.5"></path><path d="M-52.13 704.63L-52.13 704.63" stroke="hsl(281.9, 77.2%, 51.5%)" stroke-width="1.5"></path><path d="M-52.13 704.63L109.55 645.49" stroke="hsl(281.9, 77.2%, 51.5%)" stroke-width="1.5"></path><path d="M75.95 502.12L75.95 502.12" stroke="hsl(281.9, 77.2%, 51.5%)" stroke-width="1.5"></path><path d="M75.95 502.12L189.11 517.3" stroke="hsl(281.9, 77.2%, 51.5%)" stroke-width="1.5"></path><path d="M75.95 502.12L109.55 645.49" stroke="hsl(281.9, 77.2%, 51.5%)" stroke-width="1.5"></path><path d="M75.95 502.12L-52.13 704.63" stroke="hsl(281.9, 77.2%, 51.5%)" stroke-width="1.5"></path><path d="M75.95 502.12L250.17 699.21" stroke="hsl(281.9, 77.2%, 51.5%)" stroke-width="1.5"></path><path d="M75.95 502.12L360.61 524.89" stroke="hsl(281.9, 77.2%, 51.5%)" stroke-width="1.5"></path><path d="M109.55 645.49L109.55 645.49" stroke="hsl(281.9, 77.2%, 51.5%)" stroke-width="1.5"></path><path d="M109.55 645.49L250.17 699.21" stroke="hsl(281.9, 77.2%, 51.5%)" stroke-width="1.5"></path><path d="M109.55 645.49L189.11 517.3" stroke="hsl(281.9, 77.2%, 51.5%)" stroke-width="1.5"></path><path d="M189.11 517.3L189.11 517.3" stroke="hsl(281.9, 77.2%, 51.5%)" stroke-width="1.5"></path><path d="M250.17 699.21L250.17 699.21" stroke="hsl(281.9, 77.2%, 51.5%)" stroke-width="1.5"></path><path d="M250.17 699.21L375.21 654.1" stroke="hsl(281.9, 77.2%, 51.5%)" stroke-width="1.5"></path><path d="M375.21 654.1L375.21 654.1" stroke="hsl(281.9, 77.2%, 51.5%)" stroke-width="1.5"></path><path d="M495.6 551.32L495.6 551.32" stroke="hsl(281.9, 77.2%, 51.5%)" stroke-width="1.5"></path><path d="M495.6 551.32L510.7 661.24" stroke="hsl(281.9, 77.2%, 51.5%)" stroke-width="1.5"></path><path d="M495.6 551.32L375.21 654.1" stroke="hsl(281.9, 77.2%, 51.5%)" stroke-width="1.5"></path><path d="M510.7 661.24L510.7 661.24" stroke="hsl(281.9, 77.2%, 51.5%)" stroke-width="1.5"></path><path d="M510.7 661.24L375.21 654.1" stroke="hsl(281.9, 77.2%, 51.5%)" stroke-width="1.5"></path><path d="M701.14 528.2L701.14 528.2" stroke="hsl(281.9, 77.2%, 51.5%)" stroke-width="1.5"></path><path d="M701.14 528.2L815.91 508.25" stroke="hsl(281.9, 77.2%, 51.5%)" stroke-width="1.5"></path><path d="M701.14 528.2L495.6 551.32" stroke="hsl(281.9, 77.2%, 51.5%)" stroke-width="1.5"></path><path d="M701.14 528.2L845.66 361.61" stroke="hsl(281.9, 77.2%, 51.5%)" stroke-width="1.5"></path><path d="M701.14 528.2L510.7 661.24" stroke="hsl(281.9, 77.2%, 51.5%)" stroke-width="1.5"></path><path d="M701.14 528.2L1002.34 507.04" stroke="hsl(281.9, 77.2%, 51.5%)" stroke-width="1.5"></path><path d="M845.66 361.61L845.66 361.61" stroke="hsl(281.9, 77.2%, 51.5%)" stroke-width="1.5"></path><path d="M845.66 361.61L815.91 508.25" stroke="hsl(281.9, 77.2%, 51.5%)" stroke-width="1.5"></path><path d="M815.91 508.25L815.91 508.25" stroke="hsl(281.9, 77.2%, 51.5%)" stroke-width="1.5"></path><path d="M815.91 508.25L1002.34 507.04" stroke="hsl(281.9, 77.2%, 51.5%)" stroke-width="1.5"></path><path d="M815.91 508.25L969.78 350.25" stroke="hsl(281.9, 77.2%, 51.5%)" stroke-width="1.5"></path><path d="M815.91 508.25L639.67 664.45" stroke="hsl(281.9, 77.2%, 51.5%)" stroke-width="1.5"></path><path d="M815.91 508.25L972.35 685.59" stroke="hsl(281.9, 77.2%, 51.5%)" stroke-width="1.5"></path><path d="M1002.34 507.04L1002.34 507.04" stroke="hsl(281.9, 77.2%, 51.5%)" stroke-width="1.5"></path><path d="M1002.34 507.04L969.78 350.25" stroke="hsl(281.9, 77.2%, 51.5%)" stroke-width="1.5"></path><path d="M972.35 685.59L972.35 685.59" stroke="hsl(281.9, 77.2%, 51.5%)" stroke-width="1.5"></path><path d="M972.35 685.59L1092.8 702.77" stroke="hsl(281.9, 77.2%, 51.5%)" stroke-width="1.5"></path><path d="M972.35 685.59L1002.34 507.04" stroke="hsl(281.9, 77.2%, 51.5%)" stroke-width="1.5"></path><path d="M972.35 685.59L1124.22 553.46" stroke="hsl(281.9, 77.2%, 51.5%)" stroke-width="1.5"></path><path d="M1147.66 105.79L1147.66 105.79" stroke="hsl(281.9, 77.2%, 51.5%)" stroke-width="1.5"></path><path d="M1147.66 105.79L1257.85 74.41" stroke="hsl(281.9, 77.2%, 51.5%)" stroke-width="1.5"></path><path d="M1147.66 105.79L1130.39 219.46" stroke="hsl(281.9, 77.2%, 51.5%)" stroke-width="1.5"></path><path d="M1147.66 105.79L1297.96 197.04" stroke="hsl(281.9, 77.2%, 51.5%)" stroke-width="1.5"></path><path d="M1147.66 105.79L1135.14 367.36" stroke="hsl(281.9, 77.2%, 51.5%)" stroke-width="1.5"></path><path d="M1130.39 219.46L1130.39 219.46" stroke="hsl(281.9, 77.2%, 51.5%)" stroke-width="1.5"></path><path d="M1135.14 367.36L1135.14 367.36" stroke="hsl(281.9, 77.2%, 51.5%)" stroke-width="1.5"></path><path d="M1135.14 367.36L1130.39 219.46" stroke="hsl(281.9, 77.2%, 51.5%)" stroke-width="1.5"></path><path d="M1135.14 367.36L1285.18 392.65" stroke="hsl(281.9, 77.2%, 51.5%)" stroke-width="1.5"></path><path d="M1135.14 367.36L969.78 350.25" stroke="hsl(281.9, 77.2%, 51.5%)" stroke-width="1.5"></path><path d="M1092.8 702.77L1092.8 702.77" stroke="hsl(281.9, 77.2%, 51.5%)" stroke-width="1.5"></path><path d="M1092.8 702.77L1291.1 699.63" stroke="hsl(281.9, 77.2%, 51.5%)" stroke-width="1.5"></path><path d="M1092.8 702.77L1002.34 507.04" stroke="hsl(281.9, 77.2%, 51.5%)" stroke-width="1.5"></path><path d="M1257.85 74.41L1257.85 74.41" stroke="hsl(281.9, 77.2%, 51.5%)" stroke-width="1.5"></path><path d="M1257.85 74.41L1297.96 197.04" stroke="hsl(281.9, 77.2%, 51.5%)" stroke-width="1.5"></path><path d="M1257.85 74.41L1130.39 219.46" stroke="hsl(281.9, 77.2%, 51.5%)" stroke-width="1.5"></path><path d="M1257.85 74.41L1390.77 -67.38" stroke="hsl(281.9, 77.2%, 51.5%)" stroke-width="1.5"></path><path d="M1257.85 74.41L1457.21 193.45" stroke="hsl(281.9, 77.2%, 51.5%)" stroke-width="1.5"></path><path d="M1257.85 74.41L1538.33 102.42" stroke="hsl(281.9, 77.2%, 51.5%)" stroke-width="1.5"></path><path d="M1297.96 197.04L1297.96 197.04" stroke="hsl(281.9, 77.2%, 51.5%)" stroke-width="1.5"></path><path d="M1297.96 197.04L1130.39 219.46" stroke="hsl(281.9, 77.2%, 51.5%)" stroke-width="1.5"></path><path d="M1285.18 392.65L1285.18 392.65" stroke="hsl(281.9, 77.2%, 51.5%)" stroke-width="1.5"></path><path d="M1285.18 392.65L1264.45 499.77" stroke="hsl(281.9, 77.2%, 51.5%)" stroke-width="1.5"></path><path d="M1264.45 499.77L1264.45 499.77" stroke="hsl(281.9, 77.2%, 51.5%)" stroke-width="1.5"></path><path d="M1264.45 499.77L1398.05 540.9" stroke="hsl(281.9, 77.2%, 51.5%)" stroke-width="1.5"></path><path d="M1264.45 499.77L1135.14 367.36" stroke="hsl(281.9, 77.2%, 51.5%)" stroke-width="1.5"></path><path d="M1291.1 699.63L1291.1 699.63" stroke="hsl(281.9, 77.2%, 51.5%)" stroke-width="1.5"></path><path d="M1291.1 699.63L1439.48 669.19" stroke="hsl(281.9, 77.2%, 51.5%)" stroke-width="1.5"></path><path d="M1291.1 699.63L1398.05 540.9" stroke="hsl(281.9, 77.2%, 51.5%)" stroke-width="1.5"></path><path d="M1390.77 -67.38L1390.77 -67.38" stroke="hsl(281.9, 77.2%, 51.5%)" stroke-width="1.5"></path><path d="M1390.77 -67.38L1580.8 -95.36" stroke="hsl(281.9, 77.2%, 51.5%)" stroke-width="1.5"></path><path d="M1390.77 -67.38L1538.33 102.42" stroke="hsl(281.9, 77.2%, 51.5%)" stroke-width="1.5"></path><path d="M1390.77 -67.38L1457.21 193.45" stroke="hsl(281.9, 77.2%, 51.5%)" stroke-width="1.5"></path><path d="M1390.77 -67.38L1297.96 197.04" stroke="hsl(281.9, 77.2%, 51.5%)" stroke-width="1.5"></path><path d="M1439.48 669.19L1439.48 669.19" stroke="hsl(281.9, 77.2%, 51.5%)" stroke-width="1.5"></path><path d="M1439.48 669.19L1593.9 702.99" stroke="hsl(281.9, 77.2%, 51.5%)" stroke-width="1.5"></path><path d="M1439.48 669.19L1561.16 549.34" stroke="hsl(281.9, 77.2%, 51.5%)" stroke-width="1.5"></path><path d="M1439.48 669.19L1264.45 499.77" stroke="hsl(281.9, 77.2%, 51.5%)" stroke-width="1.5"></path><path d="M1580.8 -95.36L1580.8 -95.36" stroke="hsl(281.9, 77.2%, 51.5%)" stroke-width="1.5"></path><path d="M1580.8 -95.36L1538.33 102.42" stroke="hsl(281.9, 77.2%, 51.5%)" stroke-width="1.5"></path><path d="M1538.33 102.42L1538.33 102.42" stroke="hsl(281.9, 77.2%, 51.5%)" stroke-width="1.5"></path><path d="M1590.95 351.16L1590.95 351.16" stroke="hsl(281.9, 77.2%, 51.5%)" stroke-width="1.5"></path><path d="M1590.95 351.16L1561.16 549.34" stroke="hsl(281.9, 77.2%, 51.5%)" stroke-width="1.5"></path><path d="M1590.95 351.16L1457.21 193.45" stroke="hsl(281.9, 77.2%, 51.5%)" stroke-width="1.5"></path><path d="M1561.16 549.34L1561.16 549.34" stroke="hsl(281.9, 77.2%, 51.5%)" stroke-width="1.5"></path><path d="M1561.16 549.34L1593.9 702.99" stroke="hsl(281.9, 77.2%, 51.5%)" stroke-width="1.5"></path><path d="M1561.16 549.34L1398.05 540.9" stroke="hsl(281.9, 77.2%, 51.5%)" stroke-width="1.5"></path><path d="M1593.9 702.99L1593.9 702.99" stroke="hsl(281.9, 77.2%, 51.5%)" stroke-width="1.5"></path><path d="M1593.9 702.99L1398.05 540.9" stroke="hsl(281.9, 77.2%, 51.5%)" stroke-width="1.5"></path><path d="M1593.9 702.99L1291.1 699.63" stroke="hsl(281.9, 77.2%, 51.5%)" stroke-width="1.5"></path><circle r="25" cx="360.61" cy="524.89" fill="url(#SvgjsRadialGradient1104)"></circle><circle r="25" cx="639.67" cy="664.45" fill="url(#SvgjsRadialGradient1104)"></circle><circle r="25" cx="1005.32" cy="235.19" fill="url(#SvgjsRadialGradient1104)"></circle><circle r="25" cx="969.78" cy="350.25" fill="url(#SvgjsRadialGradient1104)"></circle><circle r="25" cx="1124.22" cy="553.46" fill="url(#SvgjsRadialGradient1104)"></circle><circle r="25" cx="1457.21" cy="193.45" fill="url(#SvgjsRadialGradient1104)"></circle><circle r="25" cx="1408.52" cy="370.28" fill="url(#SvgjsRadialGradient1104)"></circle><circle r="25" cx="1398.05" cy="540.9" fill="url(#SvgjsRadialGradient1104)"></circle><circle r="25" cx="1570.66" cy="199.94" fill="url(#SvgjsRadialGradient1104)"></circle><circle r="5" cx="-55.58" cy="534.06" fill="#c28bd9"></circle><circle r="5" cx="-52.13" cy="704.63" fill="#c28bd9"></circle><circle r="5" cx="75.95" cy="502.12" fill="#c28bd9"></circle><circle r="5" cx="109.55" cy="645.49" fill="#c28bd9"></circle><circle r="5" cx="189.11" cy="517.3" fill="#c28bd9"></circle><circle r="5" cx="250.17" cy="699.21" fill="#c28bd9"></circle><circle r="5" cx="375.21" cy="654.1" fill="#c28bd9"></circle><circle r="5" cx="495.6" cy="551.32" fill="#c28bd9"></circle><circle r="5" cx="510.7" cy="661.24" fill="#c28bd9"></circle><circle r="5" cx="701.14" cy="528.2" fill="#c28bd9"></circle><circle r="5" cx="845.66" cy="361.61" fill="#c28bd9"></circle><circle r="5" cx="815.91" cy="508.25" fill="#c28bd9"></circle><circle r="5" cx="1002.34" cy="507.04" fill="#c28bd9"></circle><circle r="5" cx="972.35" cy="685.59" fill="#c28bd9"></circle><circle r="5" cx="1147.66" cy="105.79" fill="#c28bd9"></circle><circle r="5" cx="1130.39" cy="219.46" fill="#c28bd9"></circle><circle r="5" cx="1135.14" cy="367.36" fill="#c28bd9"></circle><circle r="5" cx="1092.8" cy="702.77" fill="#c28bd9"></circle><circle r="5" cx="1257.85" cy="74.41" fill="#c28bd9"></circle><circle r="5" cx="1297.96" cy="197.04" fill="#c28bd9"></circle><circle r="5" cx="1285.18" cy="392.65" fill="#c28bd9"></circle><circle r="5" cx="1264.45" cy="499.77" fill="#c28bd9"></circle><circle r="5" cx="1291.1" cy="699.63" fill="#c28bd9"></circle><circle r="5" cx="1390.77" cy="-67.38" fill="#c28bd9"></circle><circle r="5" cx="1439.48" cy="669.19" fill="#c28bd9"></circle><circle r="5" cx="1580.8" cy="-95.36" fill="#c28bd9"></circle><circle r="5" cx="1538.33" cy="102.42" fill="#c28bd9"></circle><circle r="5" cx="1590.95" cy="351.16" fill="#c28bd9"></circle><circle r="5" cx="1561.16" cy="549.34" fill="#c28bd9"></circle><circle r="5" cx="1593.9" cy="702.99" fill="#c28bd9"></circle></g><defs><mask id="SvgjsMask1103"><rect width="1440" height="560" fill="#ffffff"></rect></mask><radialGradient id="SvgjsRadialGradient1104"><stop stop-color="#ffffff" offset="0.1"></stop><stop stop-color="rgba(132, 23, 179, 1)" offset="0.2"></stop><stop stop-color="rgba(132, 23, 179, 0)" offset="1"></stop></radialGradient></defs></svg>