<svg xmlns="http://www.w3.org/2000/svg" xmlns:xlink="http://www.w3.org/1999/xlink" version="1.1" width="1000" height="1000" viewBox="0 0 1000 1000" xml:space="preserve">
<desc>Created with Fabric.js 3.5.0</desc>
<defs>
</defs>
<rect x="0" y="0" width="100%" height="100%" fill="#ffffff"/>
<g transform="matrix(-0.625 0 0 -0.625 500 500)" id="745950">
<g style="" vector-effect="non-scaling-stroke">
		<g transform="matrix(1 0 0 1 -452.5 0)">
<linearGradient id="SVGID_11" gradientUnits="objectBoundingBox" gradientTransform="matrix(1 0 0 1 267.5 125)" x1="0" y1="1" x2="1" y2="0">
<stop offset="0%" style="stop-color:rgb(160,15,185);stop-opacity: 0.2"/>
<stop offset="66%" style="stop-color:rgb(160,15,185);stop-opacity: 0"/>
</linearGradient>
<path style="stroke: none; stroke-width: 1; stroke-dasharray: none; stroke-linecap: butt; stroke-dashoffset: 0; stroke-linejoin: miter; stroke-miterlimit: 4; is-custom-font: none; font-file-url: none; fill: url(#SVGID_11); fill-rule: nonzero; opacity: 1;" transform=" translate(-267.5, -125)" d="M 45 250 L 295 0 L 490 0 L 240 250 z" stroke-linecap="round"/>
</g>
		<g transform="matrix(1 0 0 1 -283.9 0)">
<linearGradient id="SVGID_12" gradientUnits="objectBoundingBox" gradientTransform="matrix(1 0 0 1 436.1 125)" x1="0" y1="1" x2="1" y2="0">
<stop offset="0%" style="stop-color:rgb(160,15,185);stop-opacity: 0.2"/>
<stop offset="66%" style="stop-color:rgb(160,15,185);stop-opacity: 0"/>
</linearGradient>
<path style="stroke: none; stroke-width: 1; stroke-dasharray: none; stroke-linecap: butt; stroke-dashoffset: 0; stroke-linejoin: miter; stroke-miterlimit: 4; is-custom-font: none; font-file-url: none; fill: url(#SVGID_12); fill-rule: nonzero; opacity: 1;" transform=" translate(-436.1, -125)" d="M 270.6 250 L 520.6 0 L 601.6 0 L 351.6 250 z" stroke-linecap="round"/>
</g>
		<g transform="matrix(1 0 0 1 64.45 0)">
<linearGradient id="SVGID_13" gradientUnits="objectBoundingBox" gradientTransform="matrix(1 0 0 1 784.45 125)" x1="0" y1="1" x2="1" y2="0">
<stop offset="0%" style="stop-color:rgb(160,15,185);stop-opacity: 0.2"/>
<stop offset="66%" style="stop-color:rgb(160,15,185);stop-opacity: 0"/>
</linearGradient>
<path style="stroke: none; stroke-width: 1; stroke-dasharray: none; stroke-linecap: butt; stroke-dashoffset: 0; stroke-linejoin: miter; stroke-miterlimit: 4; is-custom-font: none; font-file-url: none; fill: url(#SVGID_13); fill-rule: nonzero; opacity: 1;" transform=" translate(-784.45, -125)" d="M 522.2 250 L 772.2 0 L 1046.7 0 L 796.7 250 z" stroke-linecap="round"/>
</g>
		<g transform="matrix(1 0 0 1 212.05 0)">
<linearGradient id="SVGID_14" gradientUnits="objectBoundingBox" gradientTransform="matrix(1 0 0 1 932.05 125)" x1="0" y1="1" x2="1" y2="0">
<stop offset="0%" style="stop-color:rgb(160,15,185);stop-opacity: 0.2"/>
<stop offset="66%" style="stop-color:rgb(160,15,185);stop-opacity: 0"/>
</linearGradient>
<path style="stroke: none; stroke-width: 1; stroke-dasharray: none; stroke-linecap: butt; stroke-dashoffset: 0; stroke-linejoin: miter; stroke-miterlimit: 4; is-custom-font: none; font-file-url: none; fill: url(#SVGID_14); fill-rule: nonzero; opacity: 1;" transform=" translate(-932.05, -125)" d="M 726.8000000000001 250 L 976.8000000000001 0 L 1137.3000000000002 0 L 887.3000000000001 250 z" stroke-linecap="round"/>
</g>
		<g transform="matrix(1 0 0 1 534.75 0)">
<linearGradient id="SVGID_15" gradientUnits="objectBoundingBox" gradientTransform="matrix(1 0 0 1 1254.75 125)" x1="1" y1="1" x2="0" y2="0">
<stop offset="0%" style="stop-color:rgb(160,15,185);stop-opacity: 0.2"/>
<stop offset="66%" style="stop-color:rgb(160,15,185);stop-opacity: 0"/>
</linearGradient>
<path style="stroke: none; stroke-width: 1; stroke-dasharray: none; stroke-linecap: butt; stroke-dashoffset: 0; stroke-linejoin: miter; stroke-miterlimit: 4; is-custom-font: none; font-file-url: none; fill: url(#SVGID_15); fill-rule: nonzero; opacity: 1;" transform=" translate(-1254.75, -125)" d="M 1418 250 L 1168 0 L 1091.5 0 L 1341.5 250 z" stroke-linecap="round"/>
</g>
		<g transform="matrix(1 0 0 1 164.4 0)">
<linearGradient id="SVGID_16" gradientUnits="objectBoundingBox" gradientTransform="matrix(1 0 0 1 884.4 125)" x1="1" y1="1" x2="0" y2="0">
<stop offset="0%" style="stop-color:rgb(160,15,185);stop-opacity: 0.2"/>
<stop offset="66%" style="stop-color:rgb(160,15,185);stop-opacity: 0"/>
</linearGradient>
<path style="stroke: none; stroke-width: 1; stroke-dasharray: none; stroke-linecap: butt; stroke-dashoffset: 0; stroke-linejoin: miter; stroke-miterlimit: 4; is-custom-font: none; font-file-url: none; fill: url(#SVGID_16); fill-rule: nonzero; opacity: 1;" transform=" translate(-884.4, -125)" d="M 1177.4 250 L 927.4000000000001 0 L 591.4000000000001 0 L 841.4000000000001 250 z" stroke-linecap="round"/>
</g>
		<g transform="matrix(1 0 0 1 -31.7 0)">
<linearGradient id="SVGID_17" gradientUnits="objectBoundingBox" gradientTransform="matrix(1 0 0 1 688.3 125)" x1="1" y1="1" x2="0" y2="0">
<stop offset="0%" style="stop-color:rgb(160,15,185);stop-opacity: 0.2"/>
<stop offset="66%" style="stop-color:rgb(160,15,185);stop-opacity: 0"/>
</linearGradient>
<path style="stroke: none; stroke-width: 1; stroke-dasharray: none; stroke-linecap: butt; stroke-dashoffset: 0; stroke-linejoin: miter; stroke-miterlimit: 4; is-custom-font: none; font-file-url: none; fill: url(#SVGID_17); fill-rule: nonzero; opacity: 1;" transform=" translate(-688.3, -125)" d="M 949.8 250 L 699.8 0 L 426.79999999999995 0 L 676.8 250 z" stroke-linecap="round"/>
</g>
		<g transform="matrix(1 0 0 1 -170.55 0)">
<linearGradient id="SVGID_18" gradientUnits="objectBoundingBox" gradientTransform="matrix(1 0 0 1 549.45 125)" x1="1" y1="1" x2="0" y2="0">
<stop offset="0%" style="stop-color:rgb(160,15,185);stop-opacity: 0.2"/>
<stop offset="66%" style="stop-color:rgb(160,15,185);stop-opacity: 0"/>
</linearGradient>
<path style="stroke: none; stroke-width: 1; stroke-dasharray: none; stroke-linecap: butt; stroke-dashoffset: 0; stroke-linejoin: miter; stroke-miterlimit: 4; is-custom-font: none; font-file-url: none; fill: url(#SVGID_18); fill-rule: nonzero; opacity: 1;" transform=" translate(-549.45, -125)" d="M 708.1999999999999 250 L 458.19999999999993 0 L 390.69999999999993 0 L 640.6999999999999 250 z" stroke-linecap="round"/>
</g>
		<g transform="matrix(1 0 0 1 619.7266 24.7266)">
<linearGradient id="SVGID_19" gradientUnits="objectBoundingBox" gradientTransform="matrix(1 0 0 1 1339.7265 149.7265)" x1="0" y1="1" x2="1" y2="0">
<stop offset="0%" style="stop-color:rgb(160,15,185);stop-opacity: 0.2"/>
<stop offset="66%" style="stop-color:rgb(160,15,185);stop-opacity: 0"/>
</linearGradient>
<path style="stroke: none; stroke-width: 1; stroke-dasharray: none; stroke-linecap: butt; stroke-dashoffset: 0; stroke-linejoin: miter; stroke-miterlimit: 4; is-custom-font: none; font-file-url: none; fill: url(#SVGID_19); fill-rule: nonzero; opacity: 1;" transform=" translate(-1339.7265, -149.7265)" d="M 1239.4530664434035 250 L 1440 49.45306644340357 L 1440 250 z" stroke-linecap="round"/>
</g>
		<g transform="matrix(1 0 0 1 -619.7265 24.7266)">
<linearGradient id="SVGID_20" gradientUnits="objectBoundingBox" gradientTransform="matrix(1 0 0 1 100.2735 149.7265)" x1="1" y1="1" x2="0" y2="0">
<stop offset="0%" style="stop-color:rgb(160,15,185);stop-opacity: 0.2"/>
<stop offset="66%" style="stop-color:rgb(160,15,185);stop-opacity: 0"/>
</linearGradient>
<path style="stroke: none; stroke-width: 1; stroke-dasharray: none; stroke-linecap: butt; stroke-dashoffset: 0; stroke-linejoin: miter; stroke-miterlimit: 4; is-custom-font: none; font-file-url: none; fill: url(#SVGID_20); fill-rule: nonzero; opacity: 1;" transform=" translate(-100.2735, -149.7265)" d="M 0 250 L 200.54693355659643 250 L 0 49.45306644340357 z" stroke-linecap="round"/>
</g>
</g>
</g>
</svg>