<svg xmlns="http://www.w3.org/2000/svg" version="1.1" xmlns:xlink="http://www.w3.org/1999/xlink" xmlns:svgjs="http://svgjs.com/svgjs" width="1440" height="250" preserveAspectRatio="none" viewBox="0 0 1440 250"><g mask="url(&quot;#SvgjsMask1006&quot;)" fill="none"><path d="M45 250L295 0L490 0L240 250z" fill="url(#SvgjsLinearGradient1007)"></path><path d="M270.6 250L520.6 0L601.6 0L351.6 250z" fill="url(#SvgjsLinearGradient1007)"></path><path d="M522.2 250L772.2 0L1046.7 0L796.7 250z" fill="url(#SvgjsLinearGradient1007)"></path><path d="M726.8000000000001 250L976.8000000000001 0L1137.3000000000002 0L887.3000000000001 250z" fill="url(#SvgjsLinearGradient1007)"></path><path d="M1418 250L1168 0L1091.5 0L1341.5 250z" fill="url(#SvgjsLinearGradient1008)"></path><path d="M1177.4 250L927.4000000000001 0L591.4000000000001 0L841.4000000000001 250z" fill="url(#SvgjsLinearGradient1008)"></path><path d="M949.8 250L699.8 0L426.79999999999995 0L676.8 250z" fill="url(#SvgjsLinearGradient1008)"></path><path d="M708.1999999999999 250L458.19999999999993 0L390.69999999999993 0L640.6999999999999 250z" fill="url(#SvgjsLinearGradient1008)"></path><path d="M1239.4530664434035 250L1440 49.45306644340357L1440 250z" fill="url(#SvgjsLinearGradient1007)"></path><path d="M0 250L200.54693355659643 250L 0 49.45306644340357z" fill="url(#SvgjsLinearGradient1008)"></path></g><defs><mask id="SvgjsMask1006"><rect width="1440" height="250" fill="#ffffff"></rect></mask><linearGradient x1="0%" y1="100%" x2="100%" y2="0%" id="SvgjsLinearGradient1007"><stop stop-color="rgba(160, 15, 185, 0.2)" offset="0"></stop><stop stop-opacity="0" stop-color="rgba(160, 15, 185, 0.2)" offset="0.66"></stop></linearGradient><linearGradient x1="100%" y1="100%" x2="0%" y2="0%" id="SvgjsLinearGradient1008"><stop stop-color="rgba(160, 15, 185, 0.2)" offset="0"></stop><stop stop-opacity="0" stop-color="rgba(160, 15, 185, 0.2)" offset="0.66"></stop></linearGradient></defs></svg>